<svg width="24" height="24" viewBox="0 0 24 24" fill="none" xmlns="http://www.w3.org/2000/svg">
<path d="M10.5 19.5C8.11305 19.5 5.82387 18.5518 4.13604 16.864C2.44821 15.1761 1.5 12.8869 1.5 10.5C1.5 8.11305 2.44821 5.82387 4.13604 4.13604C5.82387 2.44821 8.11305 1.5 10.5 1.5V19.5ZM13.3695 3.573C14.2786 3.95066 15.1047 4.50311 15.801 5.199L16.86 4.14C16.0246 3.30487 15.0333 2.64184 13.9425 2.1885L13.3695 3.573ZM19.5 10.5C19.5003 9.31834 19.2666 8.14833 18.8123 7.0575L17.427 7.6305C17.8056 8.53977 18.0004 9.51505 18 10.5H19.5ZM22.5 18C22.5 17.11 22.2361 16.24 21.7416 15.4999C21.2471 14.7599 20.5443 14.1831 19.7221 13.8425C18.8998 13.5019 17.995 13.4128 17.1221 13.5865C16.2492 13.7601 15.4474 14.1887 14.818 14.818C14.1887 15.4474 13.7601 16.2492 13.5865 17.1221C13.4128 17.995 13.5019 18.8998 13.8425 19.7221C14.1831 20.5443 14.7599 21.2471 15.4999 21.7416C16.24 22.2361 17.11 22.5 18 22.5C19.193 22.4986 20.3368 22.0241 21.1804 21.1804C22.0241 20.3368 22.4986 19.193 22.5 18ZM21 18C20.9972 18.5338 20.8503 19.057 20.5748 19.5142L16.4858 15.4252C16.943 15.1498 17.4662 15.0028 18 15C18.7953 15.001 19.5578 15.3174 20.1202 15.8798C20.6826 16.4422 20.999 17.2047 21 18ZM15 18C15.0028 17.4662 15.1497 16.943 15.4252 16.4858L19.5142 20.5748C19.057 20.8502 18.5338 20.9972 18 21C17.2047 20.999 16.4422 20.6826 15.8798 20.1202C15.3174 19.5578 15.001 18.7953 15 18Z" fill="#E33629"/>
</svg>
