<svg width="24" height="24" viewBox="0 0 24 24" fill="none" xmlns="http://www.w3.org/2000/svg">
<path d="M12 11.385C11.1753 11.385 10.469 11.091 9.881 10.503C9.293 9.91501 8.99933 9.20901 9 8.38501C9 7.55968 9.29367 6.85301 9.881 6.26501C10.4683 5.67834 11.1747 5.38501 12 5.38501C12.8253 5.38501 13.5317 5.67834 14.119 6.26501C14.7063 6.85301 15 7.55968 15 8.38501C15 9.20968 14.7063 9.91568 14.119 10.503C13.5317 11.0903 12.8253 11.3843 12 11.385ZM5 18.615V16.97C5 16.5573 5.12 16.1713 5.36 15.812C5.60067 15.452 5.924 15.1727 6.33 14.974C7.274 14.5213 8.21833 14.182 9.163 13.956C10.1083 13.7293 11.054 13.616 12 13.616C12.9467 13.616 13.8923 13.7293 14.837 13.956C15.7817 14.1827 16.7257 14.522 17.669 14.974C18.0757 15.1727 18.399 15.452 18.639 15.812C18.8797 16.1713 19 16.5573 19 16.97V18.616L5 18.615Z" fill="black"/>
</svg>
